# xmcd
#
# Track frame offsets:
#	150
#	9874
#	80241
#	87340
#	100550
#	109802
#
# Disc length: 1643 seconds
# Revision: 1
# Processed by: cddbd v1.5.2PL0 Copyright (c) Steve Scherf et al.
# Submitted via: dBpowerAMP V12.0
#
DISCID=3a066906
DTITLE=Seasick Steve - I Started Out With Nothin' And I Still Got Most Of It Left [CD2]
DYEAR=2008
DGENRE=Blues
TTITLE0=Train
TTITLE1=Story
TTITLE2=Breakfast
TTITLE3=Heart Attack
TTITLE4=Lunch
TTITLE5=Laughin To Keep From Cryin
EXTD=
EXTT0=
EXTT1=
EXTT2=
EXTT3=
EXTT4=
EXTT5=
PLAYORDER=
